<svg viewBox="0 0 300 196.231">
  <path d="M160.044 69.5c-2.9-3.437-6.553-8.056-9.99-13.105a297 297 0 0 1-10.098 13.106c-6.015 7.09-16.65 8.056-24.384.322-9.883-9.453-30.507-47.48-24.492-62.411 4.727-12.031 21.592-4.727 31.474 3.437C129.43 3.974 138.882 0 149.624 0c10.42 0 19.98 3.76 27.285 10.743 9.453-7.734 26.855-15.683 32.01-3.33 6.016 14.931-14.608 52.958-24.491 62.41-7.734 7.735-18.369 6.768-24.384-.321m-5.586-19.766c3.76 5.586 8.164 11.172 11.279 15.04 3.33 3.866 8.916 4.188 13.535-.216 4.941-4.619 11.816-16.005 16.65-27.177 5.586-12.568 7.842-22.773 6.123-27.177-.43-1.182-1.182-1.826-3.223-1.826-2.793 0-11.064 2.793-17.08 7.949 3.33 4.404 5.05 9.345 5.05 14.716 0 13.32-20.84 13.75-20.84 0 0-5.478 2.47-10.527 5.8-14.931-6.015-5.586-13.534-8.701-22.128-8.701s-16.435 3.223-21.914 8.7c3.545 4.405 6.016 9.239 6.016 14.932 0 13.75-20.41 15.039-20.41 0 0-7.412 3.545-12.353 4.727-14.394-4.834-3.652-17.725-12.031-20.088-6.445-1.719 4.404.537 14.609 6.123 27.177 4.834 11.172 11.709 22.558 16.65 27.177 4.62 4.404 10.205 4.082 13.535.215a174 174 0 0 0 11.386-15.039c-4.404-7.197-6.66-12.783-6.66-16.865 0-15.038 22.021-15.36 22.021 0 0 4.082-2.148 9.668-6.552 16.865m-4.404-20.947c-1.719 0-3.653 1.075-3.653 4.082 0 1.29.537 4.19 3.653 9.776 3.007-5.586 3.545-8.38 3.545-9.776 0-3.76-2.686-4.082-3.545-4.082m-26.855-6.445c-1.182 2.041-2.47 4.942-2.47 8.701 0 1.29.321 2.256.858 2.793 1.182 1.397 4.727.43 4.727-2.793 0-3.437-1.504-6.23-3.115-8.7m53.387-.323q-3.222 4.995-3.222 9.023c0 .967.215 1.612.752 2.149 1.504 1.181 5.263.859 5.263-2.149 0-3.115-.967-6.123-2.793-9.023" fill="#111"/>
</svg>
