<svg height="196.231" width="300" style="width:300px;height:196.231px;position:absolute;top:50%;left:50%;transform:translate(-50%,-50%) scale(1);z-index:0;cursor:pointer;overflow:visible">
  <path d="M160.044 69.5c-2.9-3.437-6.553-8.056-9.99-13.105a297 297 0 0 1-10.098 13.106c-6.015 7.09-16.65 8.056-24.384.322-9.883-9.453-30.507-47.48-24.492-62.411 4.727-12.031 21.592-4.727 31.474 3.437C129.43 3.974 138.882 0 149.624 0c10.42 0 19.98 3.76 27.285 10.743 9.453-7.734 26.855-15.683 32.01-3.33 6.016 14.931-14.608 52.958-24.491 62.41-7.734 7.735-18.369 6.768-24.384-.321m-5.586-19.766c3.76 5.586 8.164 11.172 11.279 15.04 3.33 3.866 8.916 4.188 13.535-.216 4.941-4.619 11.816-16.005 16.65-27.177 5.586-12.568 7.842-22.773 6.123-27.177-.43-1.182-1.182-1.826-3.223-1.826-2.793 0-11.064 2.793-17.08 7.949 3.33 4.404 5.05 9.345 5.05 14.716 0 13.32-20.84 13.75-20.84 0 0-5.478 2.47-10.527 5.8-14.931-6.015-5.586-13.534-8.701-22.128-8.701s-16.435 3.223-21.914 8.7c3.545 4.405 6.016 9.239 6.016 14.932 0 13.75-20.41 15.039-20.41 0 0-7.412 3.545-12.353 4.727-14.394-4.834-3.652-17.725-12.031-20.088-6.445-1.719 4.404.537 14.609 6.123 27.177 4.834 11.172 11.709 22.558 16.65 27.177 4.62 4.404 10.205 4.082 13.535.215a174 174 0 0 0 11.386-15.039c-4.404-7.197-6.66-12.783-6.66-16.865 0-15.038 22.021-15.36 22.021 0 0 4.082-2.148 9.668-6.552 16.865m-4.404-20.947c-1.719 0-3.653 1.075-3.653 4.082 0 1.29.537 4.19 3.653 9.776 3.007-5.586 3.545-8.38 3.545-9.776 0-3.76-2.686-4.082-3.545-4.082m-26.855-6.445c-1.182 2.041-2.47 4.942-2.47 8.701 0 1.29.321 2.256.858 2.793 1.182 1.397 4.727.43 4.727-2.793 0-3.437-1.504-6.23-3.115-8.7m53.387-.323q-3.222 4.995-3.222 9.023c0 .967.215 1.612.752 2.149 1.504 1.181 5.263.859 5.263-2.149 0-3.115-.967-6.123-2.793-9.023M11.073 137.331 0 95.001h9.14l8.261 32.047 9.463-32.047h7.41l9.405 32.047 8.348-32.047h9.11l-11.075 42.33H38.757l-8.204-26.159-8.173 26.159zm89.287-42.33h8.79v42.33h-8.79V119.93H82.463v17.401h-8.79v-42.33h8.79v17.283h17.899zm53.843 42.33-3.076-8.73h-17.78l-3.075 8.73h-8.995l15.585-42.33h10.751l15.587 42.33h-8.994zm-18.278-16.083h12.626l-6.3-17.958zm61.752 16.083L186.662 118.7h-2.55v18.631h-8.788v-42.33h15.35c9.58 0 13.621 5.654 13.621 12.655 0 5.683-3.221 9.375-8.963 10.604l12.743 19.071zm-13.565-35.035v10.106h5.185c4.687 0 6.592-1.992 6.592-5.04 0-3.014-1.905-5.066-6.592-5.066zm53.785-7.295c8.29 0 13.446 6.152 13.446 13.68 0 7.705-5.157 13.476-13.446 13.476h-8.818v15.174h-8.79V94.999zm-1.466 19.802c4.395 0 6.445-2.431 6.445-6.24 0-3.662-2.05-6.209-6.445-6.209h-7.352v12.45zm28.064 22.528v-42.33h15.32C293.322 95 300 103.496 300 116.15c0 12.685-6.678 21.18-20.183 21.18zm8.789-7.763h6.092c7.792 0 11.366-4.863 11.366-13.416s-3.574-13.417-11.366-13.417h-6.093zM82.055 159.97 80 152.11h1.698l1.533 5.95 1.757-5.95h1.376l1.746 5.95 1.55-5.95h1.692l-2.056 7.86h-2.1l-1.523-4.857-1.517 4.856zm16.98.108c-2.312 0-4.02-1.578-4.02-4.041 0-2.47 1.708-4.036 4.02-4.036 2.306 0 4.014 1.567 4.014 4.036 0 2.463-1.708 4.04-4.014 4.04m0-1.495c1.354 0 2.393-.952 2.393-2.545 0-1.588-1.039-2.535-2.393-2.535s-2.394.947-2.394 2.535c0 1.594 1.04 2.545 2.394 2.545m17.469 1.387h-1.627l-.516-5.923-1.991 5.923h-1.055l-1.991-5.923-.522 5.923h-1.632l.659-7.86h2.328l1.674 4.934 1.697-4.933h2.329zm9.212-6.423H122.8v1.784h2.583v1.42h-2.583v1.778h2.915v1.441h-4.557v-7.859h4.557zm9.996-1.436h1.626v7.86h-1.888l-3.48-5.62v5.62h-1.627v-7.86h1.866l3.503 5.586zm6.797 3.546-.158-3.546h1.48l-.202 3.546zm8.93 4.422c-1.686 0-3.002-.81-3.242-2.284l1.686-.387c.11.881.756 1.339 1.62 1.339.665 0 1.193-.295 1.187-.958-.006-.74-.876-.973-1.833-1.267-1.153-.36-2.388-.784-2.388-2.23 0-1.463 1.197-2.29 2.773-2.29 1.382 0 2.775.56 3.09 2.067l-1.577.391c-.147-.783-.674-1.125-1.415-1.125-.657 0-1.218.271-1.218.919 0 .603.773.804 1.665 1.071 1.186.36 2.589.816 2.589 2.382 0 1.67-1.398 2.372-2.937 2.372zm18.185-7.968h1.632v7.86h-1.632v-3.231h-3.323v3.23h-1.632v-7.86h1.632v3.21h3.323zm11.17 1.436h-2.914v1.784h2.583v1.42h-2.583v1.778h2.915v1.441h-4.558v-7.859h4.558zm9.888 6.423-.572-1.62h-3.3l-.572 1.62h-1.67l2.894-7.86h1.996l2.894 7.86zm-3.394-2.986h2.344l-1.17-3.334zm10.822 1.545h2.464v1.441h-4.096v-7.86h1.632zm11.214-6.418v1.436h-1.865v6.423h-1.616v-6.423h-1.876v-1.436zm9.137 0h1.632v7.86h-1.632v-3.231h-3.324v3.23h-1.631v-7.86h1.631v3.21h3.324zM36.114 177.97l-.57-1.622H32.24l-.57 1.621H30l2.893-7.86h1.996l2.894 7.86zm-3.394-2.987h2.344l-1.17-3.334zm10.822 1.545h2.464v1.441H41.91v-7.86h1.632zm8.288 0h2.464v1.441h-4.096v-7.86h1.632zm6.656 1.441v-7.86h1.632v7.86zm11.867 0-.571-1.62H66.48l-.572 1.62h-1.67l2.894-7.86h1.996l2.894 7.86zm-3.395-2.986h2.345l-1.17-3.334zm14.56-4.873h1.626v7.86h-1.887l-3.481-5.62v5.62h-1.627v-7.86h1.866l3.503 5.586zm10.088 7.968c-2.312 0-4.02-1.572-4.02-4.041S89.295 170 91.607 170c1.751 0 3.154.898 3.714 2.387l-1.522.555c-.348-.913-1.181-1.44-2.192-1.44-1.354 0-2.394.946-2.394 2.534s1.04 2.54 2.394 2.54c1.012 0 1.843-.533 2.192-1.447l1.522.555c-.56 1.49-1.963 2.393-3.714 2.393m12.557-6.532h-2.915v1.784h2.583v1.42h-2.583v1.778h2.915v1.441h-4.558v-7.859h4.558zm15.101 0h-2.99v1.784h2.582v1.42h-2.583v3.22h-1.643v-7.86h4.634zm7.821 6.532c-2.311 0-4.02-1.578-4.02-4.041 0-2.47 1.708-4.036 4.02-4.036 2.306 0 4.014 1.567 4.014 4.036 0 2.463-1.708 4.04-4.014 4.04m0-1.495c1.354 0 2.393-.952 2.393-2.545 0-1.588-1.039-2.535-2.393-2.535s-2.393.947-2.393 2.535c0 1.594 1.038 2.545 2.393 2.545m12.611 1.387-2.044-3.459h-.474v3.46h-1.632v-7.86h2.85c1.78 0 2.53 1.05 2.53 2.35 0 1.055-.599 1.74-1.665 1.969l2.366 3.54zm-2.517-6.505v1.877h.962c.87 0 1.224-.37 1.224-.936 0-.56-.354-.941-1.224-.941zm18.581 6.505-2.045-3.459h-.473v3.46h-1.632v-7.86h2.85c1.78 0 2.53 1.05 2.53 2.35 0 1.055-.599 1.74-1.665 1.969l2.367 3.54zm-2.517-6.505v1.877h.962c.87 0 1.224-.37 1.224-.936 0-.56-.353-.941-1.224-.941zm13.15.082h-2.916v1.784h2.585v1.42h-2.585v1.778h2.916v1.441h-4.558v-7.859h4.558zm7.238 6.532c-1.686 0-3.002-.81-3.242-2.284l1.686-.387c.11.881.756 1.339 1.62 1.339.665 0 1.193-.295 1.187-.958-.005-.74-.876-.973-1.833-1.267-1.153-.36-2.388-.784-2.388-2.23 0-1.463 1.197-2.29 2.774-2.29 1.381 0 2.774.56 3.09 2.067l-1.578.391c-.147-.783-.674-1.125-1.414-1.125-.658 0-1.218.271-1.218.919 0 .603.772.804 1.664 1.071 1.186.36 2.59.816 2.59 2.382 0 1.67-1.399 2.372-2.938 2.372m11.949-6.532h-2.915v1.784h2.583v1.42h-2.583v1.778h2.915v1.441h-4.558v-7.859h4.558zm9.886 6.423-.571-1.62h-3.301l-.572 1.62h-1.67l2.895-7.86h1.996l2.893 7.86zm-3.394-2.986h2.344l-1.17-3.334zm13.34 2.986-2.045-3.459h-.473v3.46h-1.631v-7.86h2.85c1.778 0 2.529 1.05 2.529 2.35 0 1.055-.598 1.74-1.664 1.969l2.365 3.54zm-2.518-6.505v1.877h.963c.87 0 1.224-.37 1.224-.936 0-.56-.354-.941-1.224-.941zm12.074 6.614c-2.312 0-4.02-1.572-4.02-4.041s1.708-4.036 4.02-4.036c1.751 0 3.154.898 3.715 2.387l-1.523.555c-.348-.913-1.18-1.44-2.192-1.44-1.355 0-2.394.946-2.394 2.534s1.04 2.54 2.394 2.54c1.011 0 1.843-.533 2.192-1.447l1.523.555c-.56 1.49-1.964 2.393-3.715 2.393m12.955-7.968h1.632v7.86h-1.632v-3.231h-3.324v3.23h-1.632v-7.86h1.632v3.21h3.324zm17.712 7.86-.571-1.622h-3.302l-.57 1.621h-1.67l2.893-7.86h1.996l2.894 7.86zm-3.395-2.987h2.345l-1.17-3.334zm14.56-4.873h1.626v7.86h-1.887l-3.481-5.62v5.62h-1.627v-7.86h1.866l3.503 5.586zm6.607 7.86v-7.86h2.845c2.507 0 3.747 1.577 3.747 3.927 0 2.355-1.24 3.932-3.747 3.932zm1.632-1.442h1.131c1.447 0 2.111-.903 2.111-2.491s-.664-2.491-2.11-2.491h-1.132zM35.269 188.11c1.54 0 2.497 1.142 2.497 2.54 0 1.43-.958 2.502-2.497 2.502H33.63v2.817h-1.63v-7.859zm-.272 3.676c.816 0 1.196-.45 1.196-1.158 0-.68-.38-1.153-1.196-1.153h-1.365v2.311zm11.236 4.183-2.046-3.459h-.473v3.46h-1.63v-7.86h2.85c1.778 0 2.528 1.05 2.528 2.35 0 1.055-.598 1.74-1.664 1.969l2.366 3.54zm-2.518-6.505v1.877h.963c.87 0 1.224-.37 1.224-.936 0-.56-.354-.941-1.224-.941zm12.073 6.614c-2.311 0-4.02-1.578-4.02-4.041 0-2.47 1.709-4.036 4.02-4.036 2.306 0 4.014 1.567 4.014 4.036 0 2.463-1.707 4.04-4.014 4.04m0-1.495c1.355 0 2.394-.952 2.394-2.545 0-1.588-1.04-2.535-2.394-2.535s-2.393.947-2.393 2.535c0 1.594 1.039 2.545 2.393 2.545m13.096-5.036h-2.991v1.784h2.583v1.42h-2.583v3.22H64.25v-7.86h4.634zm8.898 0h-2.916v1.784h2.584v1.42h-2.584v1.778h2.916v1.441h-4.56v-7.859h4.559zm7.237 6.532c-1.686 0-3.002-.81-3.241-2.284l1.686-.387c.108.881.755 1.339 1.62 1.339.664 0 1.192-.295 1.187-.958-.006-.74-.876-.973-1.834-1.267-1.153-.36-2.387-.784-2.387-2.23 0-1.463 1.196-2.29 2.773-2.29 1.382 0 2.774.56 3.09 2.067l-1.578.391c-.146-.783-.674-1.125-1.414-1.125-.658 0-1.218.271-1.218.919 0 .603.773.804 1.664 1.071 1.187.36 2.59.816 2.59 2.382 0 1.67-1.398 2.372-2.938 2.372m10.002 0c-1.687 0-3.003-.81-3.242-2.284l1.686-.387c.109.881.756 1.339 1.62 1.339.664 0 1.192-.295 1.187-.958-.006-.74-.877-.973-1.833-1.267-1.153-.36-2.388-.784-2.388-2.23 0-1.463 1.196-2.29 2.774-2.29 1.38 0 2.773.56 3.089 2.067l-1.577.391c-.147-.783-.674-1.125-1.415-1.125-.657 0-1.218.271-1.218.919 0 .603.772.804 1.665 1.071 1.185.36 2.588.816 2.588 2.382 0 1.67-1.398 2.372-2.936 2.372m7.39-.109v-7.86h1.631v7.86zm10.087.109c-2.311 0-4.019-1.578-4.019-4.041 0-2.47 1.708-4.036 4.019-4.036 2.306 0 4.014 1.567 4.014 4.036 0 2.463-1.708 4.04-4.014 4.04m0-1.495c1.355 0 2.393-.952 2.393-2.545 0-1.588-1.038-2.535-2.393-2.535s-2.393.947-2.393 2.535c0 1.594 1.039 2.545 2.393 2.545m13.831-6.472h1.626v7.86h-1.887l-3.481-5.62v5.62h-1.627v-7.86h1.866l3.504 5.586zm11.867 7.86-.572-1.622h-3.302l-.57 1.621h-1.67l2.893-7.86h1.996l2.894 7.86zm-3.395-2.987h2.345l-1.17-3.334zm10.823 1.545h2.463v1.441h-4.095v-7.86h1.632zm12.496 1.441v-7.86h2.844c2.508 0 3.748 1.578 3.748 3.928 0 2.355-1.24 3.932-3.748 3.932zm1.632-1.441h1.13c1.448 0 2.112-.903 2.112-2.491s-.664-2.491-2.111-2.491h-1.13zm13.993-4.982h-2.915v1.784h2.583v1.42h-2.583v1.778h2.915v1.441h-4.558v-7.859h4.558zm9.626-1.436h1.735l-2.904 7.86h-1.796l-2.888-7.86h1.73l2.061 5.956zm10.42 1.436h-2.916v1.784h2.584v1.42h-2.584v1.778h2.916v1.441h-4.558v-7.859h4.558zm6.258 4.982h2.464v1.441h-4.095v-7.86h1.632zm10.138 1.55c-2.312 0-4.02-1.578-4.02-4.041 0-2.47 1.708-4.036 4.02-4.036 2.305 0 4.014 1.567 4.014 4.036 0 2.463-1.708 4.04-4.014 4.04m0-1.495c1.354 0 2.393-.952 2.393-2.545 0-1.588-1.039-2.535-2.393-2.535s-2.394.947-2.394 2.535c0 1.594 1.039 2.545 2.394 2.545m11.73-6.473c1.54 0 2.497 1.142 2.497 2.54 0 1.43-.957 2.503-2.497 2.503h-1.637v2.817h-1.632v-7.859zm-.272 3.677c.816 0 1.197-.451 1.197-1.159 0-.68-.381-1.153-1.197-1.153h-1.365v2.312zm16.093 4.183h-1.627l-.516-5.923-1.99 5.923h-1.056l-1.99-5.923-.522 5.923h-1.632l.658-7.86h2.328l1.675 4.934 1.697-4.933h2.328zm9.212-6.423h-2.915v1.784h2.583v1.42h-2.583v1.778h2.915v1.441h-4.558v-7.859h4.558zm9.996-1.436h1.626v7.86h-1.888l-3.48-5.62v5.62h-1.627v-7.86h1.866l3.503 5.586zm11.165 0v1.436h-1.866v6.423h-1.615v-6.423h-1.877v-1.436z" fill="#f2f4f7"/>
</svg>
